<svg id="visual" viewBox="0 0 900 300" width="900" height="300" xmlns="http://www.w3.org/2000/svg" xmlns:xlink="http://www.w3.org/1999/xlink" version="1.1">
<path d="M0 213L30 215C60 217 120 221 180 221.8C240 222.7 300 220.3 360 222.5C420 224.7 480 231.3 540 234.7C600 238 660 238 720 238.5C780 239 840 240 870 240.5L900 241L900 301L870 301C840 301 780 301 720 301C660 301 600 301 540 301C480 301 420 301 360 301C300 301 240 301 180 301C120 301 60 301 30 301L0 301Z" fill="#323c5f"></path>
<path d="M0 256L30 252C60 248 120 240 180 239.8C240 239.7 300 247.3 360 251.3C420 255.3 480 255.7 540 252.7C600 249.7 660 243.3 720 243.8C780 244.3 840 251.7 870 255.3L900 259L900 301L870 301C840 301 780 301 720 301C660 301 600 301 540 301C480 301 420 301 360 301C300 301 240 301 180 301C120 301 60 301 30 301L0 301Z" fill="#323151"></path>
<path d="M0 260L30 261.8C60 263.7 120 267.3 180 270.7C240 274 300 277 360 277.5C420 278 480 276 540 276.2C600 276.3 660 278.7 720 278.3C780 278 840 275 870 273.5L900 272L900 301L870 301C840 301 780 301 720 301C660 301 600 301 540 301C480 301 420 301 360 301C300 301 240 301 180 301C120 301 60 301 30 301L0 301Z" fill="#302743"></path>
</svg>